<?xml version="1.0" standalone="no"?>
<!DOCTYPE svg PUBLIC "-//W3C//DTD SVG 20010904//EN"
 "http://www.w3.org/TR/2001/REC-SVG-20010904/DTD/svg10.dtd">
<svg version="1.0" xmlns="http://www.w3.org/2000/svg"
 width="1906.000000pt" height="2099.000000pt" viewBox="0 0 1906.000000 2099.000000"
 preserveAspectRatio="xMidYMid meet">
<metadata>
Created by potrace 1.14, written by Peter Selinger 2001-2017
</metadata>
<g transform="translate(0.000000,2099.000000) scale(0.100000,-0.100000)"
fill="#39BA1F" stroke="none">
<path d="M18316 20881 c-460 -525 -1073 -884 -2011 -1179 -307 -97 -405 -125
-1140 -332 -721 -202 -1391 -412 -1830 -573 -1897 -694 -3241 -1734 -4109
-3179 -605 -1008 -910 -2136 -933 -3445 -3 -189 -3 -343 1 -343 4 0 105 98
224 218 545 548 1078 921 1712 1195 225 98 231 102 267 155 48 70 75 145 137
376 122 454 263 821 458 1196 530 1018 1345 1816 2486 2434 281 152 607 298
1062 476 74 29 234 93 356 141 121 49 223 89 227 89 7 0 47 -83 47 -97 0 -5
-98 -56 -217 -115 -1022 -501 -1777 -1037 -2397 -1703 -603 -649 -1007 -1353
-1230 -2145 -70 -248 -129 -530 -111 -530 7 0 147 31 311 70 402 94 451 105
584 135 63 14 142 32 175 40 33 8 236 55 450 105 747 175 1277 316 1634 436
1102 371 2016 971 2704 1773 613 716 994 1545 1166 2541 41 241 64 436 93 800
18 236 15 979 -6 1295 -10 143 -19 261 -20 262 -2 2 -42 -42 -90 -96z"/>
<path d="M1157 17698 c-3 -13 -14 -102 -24 -198 -22 -216 -25 -732 -5 -915 74
-686 293 -1266 665 -1765 230 -308 570 -630 907 -858 322 -217 717 -418 1115
-567 588 -220 1280 -374 2050 -455 255 -27 237 -28 230 18 -16 93 -70 298
-114 431 -246 743 -754 1410 -1578 2073 -65 53 -125 104 -133 113 -14 16 -13
17 10 11 49 -15 308 -146 453 -230 892 -514 1461 -1187 1772 -2096 84 -244
188 -433 309 -558 122 -128 438 -338 956 -637 74 -43 195 -113 267 -157 76
-44 144 -78 159 -78 l27 0 -5 323 c-6 354 -11 389 -94 737 -233 964 -663 1741
-1311 2370 -664 645 -1538 1124 -2688 1475 -619 189 -767 236 -1160 369 -346
116 -568 193 -850 292 -104 36 -208 72 -230 79 -22 8 -146 50 -275 95 -315
110 -434 150 -441 150 -4 0 -9 -10 -12 -22z"/>
</g>
<g transform="translate(0.000000,2099.000000) scale(0.100000,-0.100000)"
fill="#2C62AE" stroke="none">
<path d="M7678 11451 c-370 -227 -552 -419 -632 -665 -60 -183 -7 -329 133
-366 89 -23 191 22 230 103 35 73 37 128 6 252 -17 70 -25 126 -22 152 12 114
123 246 305 366 113 75 112 73 94 183 l-7 41 -107 -66z"/>
<path d="M4120 11249 c-805 -64 -1412 -305 -1916 -757 -415 -373 -695 -898
-808 -1514 -40 -214 -55 -346 -66 -585 -21 -453 21 -873 126 -1251 259 -932
910 -1574 1854 -1827 623 -167 1421 -165 2065 5 532 140 952 378 1319 746 566
568 846 1340 846 2331 0 252 -12 407 -51 642 -98 593 -345 1079 -741 1456
-434 413 -975 651 -1677 736 -191 23 -753 34 -951 18z m540 -484 c524 -63 887
-291 1172 -735 232 -361 365 -775 423 -1320 22 -208 30 -619 16 -825 -28 -395
-77 -663 -178 -970 -124 -379 -262 -623 -468 -830 -266 -267 -606 -405 -1045
-422 -507 -19 -935 126 -1252 426 -423 401 -659 1012 -728 1884 -13 174 -14
678 0 817 42 438 136 808 280 1105 248 509 662 800 1237 870 145 17 402 18
543 0z"/>
<path d="M8297 11143 c-14 -17 -17 -40 -17 -160 0 -122 2 -142 18 -156 14 -13
57 -19 207 -27 402 -23 418 -36 455 -375 28 -257 32 -624 27 -2430 -7 -2149
-7 -2160 -91 -2238 -22 -21 -97 -75 -167 -120 -74 -47 -130 -90 -133 -102 -3
-11 -6 -50 -6 -86 0 -102 -7 -100 250 -89 284 12 1250 12 2669 0 l1154 -11 23
22 c22 21 23 26 23 228 2 321 22 674 57 994 22 195 28 187 -147 187 -123 0
-128 -1 -147 -24 -12 -16 -25 -63 -36 -133 -51 -312 -122 -607 -158 -651 -45
-53 -227 -84 -668 -113 -85 -5 -441 -12 -791 -16 l-636 -6 -6 159 c-4 87 -7
605 -7 1150 l0 991 38 6 c116 18 527 28 741 18 500 -25 671 -62 715 -156 31
-65 46 -168 52 -355 8 -243 -2 -230 188 -230 124 0 142 2 151 18 12 20 13
1771 1 1790 -5 8 -48 12 -146 12 -172 0 -165 6 -174 -165 -12 -240 -44 -385
-96 -428 -59 -50 -87 -52 -755 -52 -341 0 -642 4 -669 8 l-48 9 5 806 c4 729
12 996 35 1182 l7 55 80 7 c184 15 784 21 990 9 386 -21 664 -54 741 -86 70
-29 92 -126 101 -433 8 -289 -3 -272 171 -272 119 0 128 1 141 21 13 22 32
198 51 468 5 78 17 200 25 270 8 69 24 207 35 306 19 172 19 181 2 198 -17 17
-73 17 -1213 6 -1104 -11 -2807 -6 -2959 7 -56 5 -67 3 -83 -13z"/>
<path d="M13563 11145 c-22 -15 -23 -22 -23 -159 0 -126 2 -145 18 -160 15
-13 56 -18 208 -26 292 -16 346 -31 394 -107 34 -53 54 -171 72 -428 19 -259
19 -3760 0 -4020 -14 -199 -35 -349 -56 -399 -17 -41 -67 -83 -114 -95 -51
-14 -193 -30 -349 -39 -180 -11 -173 -4 -173 -187 0 -124 2 -144 18 -158 16
-15 44 -15 282 -7 348 12 1585 12 2009 0 305 -9 336 -8 353 7 16 14 18 33 18
153 0 193 22 179 -312 202 -144 10 -279 23 -300 29 -52 14 -112 69 -126 116
-17 58 -31 215 -42 463 -12 286 -13 3733 0 4053 11 280 14 303 43 310 12 3
127 16 255 28 208 21 246 22 360 11 390 -36 639 -201 775 -516 110 -256 140
-668 71 -1006 -76 -371 -299 -624 -622 -706 -174 -44 -328 -41 -519 10 l-53
14 -35 -41 c-19 -22 -35 -44 -35 -49 0 -5 22 -52 49 -106 26 -53 56 -118 65
-143 17 -46 19 -47 74 -58 215 -42 514 -53 713 -26 365 48 697 196 1016 454
182 146 315 313 413 516 120 249 170 484 170 797 0 79 -5 182 -10 228 -24 194
-103 418 -198 557 -57 84 -194 209 -292 267 -152 90 -348 156 -580 195 -236
40 -386 44 -1355 30 -838 -11 -1918 -8 -2090 7 -56 4 -75 2 -92 -11z"/>
<path d="M1697 4314 c-93 -68 -116 -134 -118 -345 l-1 -151 104 0 103 0 0 114
0 113 -54 3 -53 3 7 47 c9 67 42 130 81 155 19 12 34 26 34 30 0 12 -40 67
-48 67 -4 0 -29 -16 -55 -36z"/>
<path d="M3110 4229 c-36 -11 -112 -28 -170 -37 l-105 -18 -3 -31 c-3 -30 -2
-30 49 -35 63 -6 75 -20 85 -95 4 -31 5 -304 2 -609 -4 -475 -2 -554 10 -559
8 -3 34 10 58 30 l43 36 59 -30 c84 -42 171 -57 246 -41 45 9 84 29 176 92
172 116 194 137 240 231 71 146 74 315 8 440 -58 109 -152 161 -288 162 -104
0 -146 -17 -242 -98 -36 -32 -70 -57 -74 -57 -4 0 -4 144 -1 320 7 365 17 332
-93 299z m365 -648 c51 -24 88 -63 117 -126 20 -43 23 -66 23 -160 0 -160 -37
-250 -123 -302 -76 -46 -207 -22 -267 49 l-25 30 0 218 0 218 41 35 c65 57
161 72 234 38z"/>
<path d="M5270 4225 c-41 -13 -117 -29 -168 -36 -83 -11 -93 -15 -98 -35 -9
-34 0 -40 58 -47 89 -11 83 34 83 -582 0 -620 7 -575 -88 -585 -50 -5 -52 -6
-55 -37 l-3 -33 261 0 261 0 -3 33 c-3 31 -5 32 -57 37 -79 8 -81 14 -81 207
0 94 4 163 9 163 20 0 318 -343 359 -412 l16 -28 164 0 163 0 -3 33 c-2 25 -8
33 -27 35 -30 5 -116 93 -303 311 l-149 173 60 54 c167 151 227 191 302 200
57 6 59 8 59 35 l0 29 -127 -1 -128 0 -95 -104 c-88 -96 -280 -275 -295 -275
-4 0 -5 199 -4 443 3 510 16 461 -111 422z"/>
<path d="M12581 4239 c-34 -14 -146 -38 -237 -52 -78 -12 -79 -12 -79 -42 0
-28 2 -30 55 -38 32 -4 60 -14 68 -24 19 -26 18 -1092 -2 -1118 -9 -13 -31
-21 -67 -25 -52 -5 -54 -6 -57 -37 l-3 -33 261 0 261 0 -3 33 c-3 31 -5 32
-55 37 -29 3 -59 12 -67 20 -19 19 -36 350 -19 350 23 0 272 -278 353 -392
l33 -48 159 0 158 0 0 35 c0 29 -4 35 -20 35 -35 0 -151 123 -439 464 -15 17
-13 21 39 68 90 81 193 164 226 181 17 9 54 19 82 23 49 6 52 8 52 35 l0 28
-120 3 -120 3 -117 -124 c-114 -121 -268 -261 -287 -261 -6 0 -7 180 -3 445 6
490 10 459 -52 434z"/>
<path d="M14800 4229 c-36 -11 -112 -27 -170 -37 l-105 -18 -3 -31 c-3 -29 -2
-30 50 -36 95 -11 89 30 86 -594 -3 -619 4 -573 -90 -573 l-48 0 0 -35 0 -35
261 0 260 0 -3 33 c-3 31 -4 32 -62 38 -32 4 -62 12 -66 20 -18 28 -23 229
-17 747 5 500 4 542 -11 541 -10 -1 -46 -10 -82 -20z"/>
<path d="M18260 4229 c-36 -11 -110 -27 -165 -36 -110 -18 -127 -26 -123 -57
2 -17 12 -22 57 -28 93 -11 86 35 86 -583 0 -620 7 -575 -88 -585 -50 -5 -52
-6 -55 -37 l-3 -33 260 0 261 0 0 35 0 35 -48 0 c-85 0 -87 3 -90 199 -2 106
0 171 6 171 21 0 317 -339 359 -411 l18 -29 160 2 160 3 0 30 c0 24 -5 31 -23
33 -31 5 -103 78 -296 301 l-159 184 31 26 c16 14 67 58 113 97 124 106 152
122 220 130 57 6 59 8 59 35 l0 29 -122 0 -123 0 -192 -190 c-106 -105 -197
-190 -204 -190 -8 0 -10 114 -8 445 4 391 2 445 -11 444 -8 0 -44 -9 -80 -20z"/>
<path d="M6396 4220 c-114 -35 -130 -201 -25 -256 48 -24 122 -15 159 21 108
103 8 279 -134 235z"/>
<path d="M17515 4210 c-50 -24 -75 -65 -75 -120 0 -81 57 -140 135 -140 79 0
135 57 135 137 0 58 -25 99 -75 123 -52 25 -70 25 -120 0z"/>
<path d="M536 4184 c-249 -47 -425 -198 -498 -428 -29 -91 -37 -336 -14 -440
21 -92 80 -213 136 -278 156 -180 483 -254 764 -173 190 55 311 148 401 309
117 209 110 579 -14 760 -78 113 -211 204 -356 242 -87 22 -319 27 -419 8z
m284 -105 c136 -31 243 -165 286 -359 26 -117 24 -333 -4 -439 -44 -167 -105
-256 -211 -308 -51 -26 -65 -28 -171 -28 -97 0 -122 4 -163 23 -77 35 -148
110 -191 200 -47 100 -65 187 -73 337 -20 431 182 651 527 574z"/>
<path d="M11092 4140 c3 -35 3 -35 60 -40 100 -9 93 36 96 -568 1 -290 0 -537
-3 -549 -3 -13 -23 -35 -45 -49 -23 -15 -40 -35 -40 -45 0 -18 18 -19 463 -19
l464 0 7 128 c4 70 8 141 9 157 2 25 -2 31 -22 33 -34 5 -41 -7 -57 -89 -8
-42 -22 -81 -32 -91 -22 -23 -202 -40 -362 -36 l-105 3 -8 95 c-4 52 -6 169
-5 260 l3 165 60 6 c94 9 254 -6 274 -25 9 -10 18 -40 21 -74 l5 -57 36 -3 37
-3 0 200 0 201 -34 0 c-32 0 -33 -2 -39 -47 -12 -91 -9 -89 -132 -95 -59 -3
-135 -2 -168 1 l-60 6 1 217 c1 120 5 225 8 234 5 14 30 15 205 12 142 -2 202
-7 213 -16 10 -8 18 -39 23 -87 7 -74 7 -75 36 -75 33 0 35 5 44 125 3 44 8
99 11 122 l6 41 -486 -1 -487 -2 3 -35z"/>
<path d="M7980 4065 c-25 -13 -73 -34 -107 -45 l-63 -22 0 -148 0 -149 -61
-41 c-79 -54 -78 -76 3 -72 l57 2 3 -302 c4 -356 5 -362 99 -411 48 -26 62
-28 131 -25 l78 3 65 65 c64 64 79 98 40 92 -59 -8 -115 -5 -136 6 -52 28 -54
38 -57 315 l-3 257 101 0 c111 0 105 -4 114 73 l6 47 -110 0 -109 0 6 88 c3
48 8 129 12 180 6 84 1 113 -18 112 -4 -1 -26 -12 -51 -25z"/>
<path d="M6493 3760 c-52 -19 -167 -43 -255 -55 -45 -6 -48 -8 -48 -35 0 -26
3 -29 49 -35 91 -12 86 9 86 -349 0 -228 -3 -318 -12 -327 -6 -6 -38 -14 -70
-18 -56 -6 -58 -7 -58 -36 l0 -30 260 0 260 0 0 30 c0 29 -1 30 -57 35 -31 3
-63 11 -70 18 -10 10 -13 101 -14 415 -1 221 -6 402 -10 403 -5 2 -32 -6 -61
-16z"/>
<path d="M7156 3769 c-128 -19 -230 -91 -266 -186 -36 -97 -23 -198 36 -263
42 -47 104 -74 237 -104 57 -13 113 -28 124 -35 41 -21 63 -61 63 -112 0 -101
-102 -163 -228 -139 -110 21 -160 67 -170 161 -7 60 -9 64 -35 67 -16 2 -29
-2 -31 -10 -3 -7 -7 -68 -11 -135 l-6 -122 83 -27 c69 -22 101 -27 193 -27
124 0 205 21 282 74 148 102 173 339 46 439 -29 23 -108 47 -257 80 -124 28
-156 53 -156 123 0 79 61 129 159 130 116 1 175 -41 188 -133 7 -50 11 -55 36
-58 33 -4 34 -3 41 129 l6 105 -62 21 c-74 25 -189 35 -272 22z"/>
<path d="M8693 3766 c-162 -41 -270 -150 -302 -304 -16 -78 -14 -254 5 -325
21 -82 47 -131 100 -187 116 -124 356 -153 539 -66 86 41 146 99 184 180 39
83 51 147 51 275 0 221 -74 349 -239 412 -71 27 -258 36 -338 15z m169 -86
c33 0 96 -69 118 -128 32 -83 47 -274 33 -397 -20 -164 -66 -225 -174 -225
-95 0 -140 43 -182 175 -19 61 -22 92 -22 235 1 147 3 171 23 221 34 86 102
136 167 123 11 -2 28 -4 37 -4z"/>
<path d="M9711 3759 c-55 -19 -156 -42 -243 -54 -44 -6 -48 -8 -48 -35 0 -26
3 -29 49 -35 91 -12 86 9 86 -350 0 -361 4 -345 -87 -345 l-48 0 0 -35 0 -35
248 2 247 3 0 30 c0 28 -3 30 -43 36 -77 10 -77 8 -80 282 -2 133 -1 251 2
263 8 31 53 82 88 100 40 21 130 20 167 -2 16 -9 40 -36 53 -58 23 -41 23 -44
23 -348 l-1 -308 184 0 183 0 -3 33 c-3 28 -7 32 -33 35 -97 9 -98 11 -93 350
3 237 1 273 -15 319 -33 94 -138 163 -248 163 -84 0 -135 -21 -213 -87 -42
-34 -80 -63 -86 -63 -5 0 -10 35 -12 77 -2 42 -7 78 -13 79 -5 1 -34 -6 -64
-17z"/>
<path d="M13797 3769 c-109 -22 -211 -88 -263 -171 -47 -75 -67 -154 -67 -278
-1 -177 31 -276 119 -370 149 -160 494 -153 650 12 94 99 119 176 119 363 0
159 -13 219 -66 299 -67 101 -167 147 -334 152 -60 2 -132 -1 -158 -7z m184
-100 c34 -17 79 -81 94 -131 53 -176 40 -476 -23 -553 -33 -40 -65 -55 -120
-55 -116 0 -173 70 -202 250 -13 85 -13 241 1 315 18 100 63 166 125 185 31 9
98 3 125 -11z"/>
<path d="M15513 3766 c-122 -30 -231 -114 -274 -212 -86 -194 -51 -479 75
-606 148 -149 465 -152 631 -6 89 77 133 185 142 343 19 331 -129 497 -441
494 -44 0 -104 -6 -133 -13z m163 -87 c55 -14 104 -68 127 -140 41 -125 46
-362 11 -479 -11 -36 -29 -67 -55 -93 l-39 -39 -71 4 c-68 4 -73 5 -109 45
-65 69 -85 153 -85 353 0 129 4 177 18 222 19 64 62 113 110 127 43 12 42 12
93 0z"/>
<path d="M16590 3766 c-182 -40 -283 -157 -282 -326 0 -111 46 -186 147 -237
56 -29 58 -23 -39 -91 -103 -71 -103 -208 -1 -242 19 -6 35 -16 35 -20 0 -5
-31 -28 -69 -50 -38 -23 -76 -49 -84 -58 -23 -25 -39 -97 -31 -140 23 -126
123 -200 307 -228 173 -26 349 9 477 96 113 77 161 165 168 306 5 110 -7 152
-53 193 -56 48 -96 55 -356 55 -218 1 -238 2 -258 20 -27 25 -27 58 2 92 22
25 29 27 118 30 108 3 200 28 270 73 91 57 131 138 132 269 l1 82 67 0 67 0 6
31 c16 81 19 79 -102 79 -100 0 -114 2 -168 29 -103 50 -232 64 -354 37z m164
-91 c61 -32 87 -96 87 -217 0 -136 -38 -197 -129 -206 -99 -9 -154 44 -172
167 -10 73 -8 116 11 177 10 31 51 77 79 87 30 11 96 6 124 -8z m179 -846 c52
-14 77 -56 77 -132 0 -76 -17 -114 -75 -165 -58 -51 -122 -72 -220 -72 -165 0
-275 78 -275 195 0 54 22 97 75 143 l48 42 166 0 c91 0 183 -5 204 -11z"/>
<path d="M17605 3753 c-44 -13 -122 -30 -174 -39 -52 -8 -98 -17 -103 -20 -4
-3 -8 -16 -8 -28 0 -21 6 -24 55 -31 30 -3 61 -13 69 -21 22 -22 29 -123 24
-389 -4 -281 -2 -276 -91 -285 -50 -5 -52 -6 -55 -37 l-3 -33 261 0 261 0 -3
33 c-3 31 -5 32 -57 37 -34 4 -58 12 -66 23 -16 23 -30 353 -21 522 5 109 9
251 7 283 -1 15 3 15 -96 -15z"/>
<path d="M4455 3764 c-84 -21 -157 -53 -219 -95 -119 -79 -156 -155 -164 -337
-5 -128 7 -209 45 -288 91 -192 376 -267 607 -161 62 29 74 39 90 75 21 47 16
78 -12 66 -9 -4 -48 -18 -87 -32 -153 -53 -302 4 -374 146 -17 32 -46 151 -38
157 1 2 97 5 212 8 227 6 333 20 343 45 10 27 -15 188 -38 239 -30 68 -93 129
-160 154 -54 20 -166 33 -205 23z m84 -121 c38 -28 69 -99 77 -174 6 -64 6
-66 -17 -72 -36 -10 -272 -8 -288 2 -20 13 -9 128 18 185 39 80 141 108 210
59z"/>
<path d="M1945 3735 c-2 -5 -6 -63 -9 -127 l-6 -118 34 0 c35 0 35 1 47 59 6
32 15 64 19 71 11 18 92 28 228 29 72 1 112 -3 112 -10 0 -13 -271 -401 -407
-581 -66 -88 -103 -146 -103 -162 l0 -25 409 0 409 0 6 57 c3 31 8 97 12 145
l6 88 -33 -3 c-33 -3 -33 -4 -54 -85 -11 -45 -23 -85 -27 -89 -11 -11 -285
-25 -350 -18 -51 5 -57 8 -48 23 15 29 291 420 394 559 73 98 96 137 96 161
l0 31 -366 2 c-238 2 -368 -1 -369 -7z"/>
<path d="M9385 1855 c-104 -36 -127 -175 -40 -241 90 -68 210 -16 222 97 10
102 -86 177 -182 144z"/>
<path d="M12895 1855 c-120 -42 -126 -204 -9 -260 88 -42 194 28 194 128 0 99
-91 164 -185 132z"/>
<path d="M8769 1686 c-41 -17 -90 -36 -108 -43 l-33 -12 7 -144 7 -144 -63
-44 c-82 -57 -83 -72 -4 -79 l60 -5 0 -290 c0 -274 1 -292 21 -329 43 -83 137
-123 250 -106 39 6 55 17 112 73 55 55 64 68 53 81 -9 11 -19 13 -37 5 -50
-18 -102 -11 -136 20 l-33 29 -3 266 -3 266 99 0 c111 0 112 0 112 81 l0 37
-107 -6 -106 -5 7 104 c3 57 9 143 13 192 7 103 10 102 -108 53z"/>
<path d="M5865 1385 c-44 -13 -119 -29 -167 -36 l-88 -13 0 -33 c0 -32 1 -33
44 -33 28 0 52 -7 67 -19 l24 -19 0 -554 c0 -417 -3 -558 -12 -574 -9 -16 -26
-23 -68 -29 -53 -6 -55 -8 -55 -36 l0 -29 265 0 265 0 0 29 c0 31 -18 41 -77
41 -17 0 -43 4 -57 10 l-26 10 0 203 0 204 68 -15 c72 -15 167 -11 205 9 53
28 258 194 281 227 92 134 121 331 70 477 -25 72 -113 158 -184 179 -67 20
-199 21 -244 2 -19 -8 -67 -42 -108 -75 -41 -34 -78 -61 -82 -61 -4 0 -6 35
-4 78 4 92 4 92 -117 57z m383 -160 c96 -41 142 -133 142 -290 0 -213 -80
-335 -222 -335 -54 0 -85 12 -145 54 l-43 29 0 232 0 231 33 31 c62 60 158 79
235 48z"/>
<path d="M7119 1396 c-64 -17 -198 -102 -210 -133 -15 -40 -11 -100 7 -107 33
-13 46 -5 65 39 25 56 48 69 129 69 89 1 137 -24 169 -89 15 -29 25 -67 25
-94 l1 -45 -125 -27 c-135 -30 -213 -58 -273 -96 -98 -62 -119 -254 -40 -361
30 -40 64 -58 129 -67 74 -10 110 4 209 79 49 36 92 66 97 66 6 0 8 -27 6 -61
l-3 -61 165 2 c91 0 169 5 173 9 20 20 1 45 -43 55 -70 17 -70 21 -69 336 1
218 -2 285 -14 322 -33 103 -95 150 -220 167 -96 13 -119 13 -178 -3z m191
-558 l0 -110 -33 -33 c-37 -37 -99 -58 -143 -49 -59 12 -84 48 -84 121 0 60
16 91 59 120 36 25 181 74 194 66 4 -2 7 -54 7 -115z"/>
<path d="M8010 1384 c-47 -13 -121 -30 -165 -37 -79 -13 -80 -14 -80 -43 0
-28 2 -29 54 -34 35 -4 58 -12 66 -24 20 -27 29 -189 22 -420 -7 -241 -8 -242
-92 -249 -49 -4 -50 -5 -50 -36 l0 -32 265 -1 265 0 3 31 c2 17 0 31 -5 32
-120 8 -142 15 -150 47 -4 15 -7 128 -7 252 -1 208 1 228 19 259 44 74 147 92
219 38 58 -45 66 -33 66 104 0 65 1 122 3 127 3 9 -79 15 -112 7 -15 -3 -62
-45 -108 -93 l-83 -87 0 93 c0 108 7 104 -130 66z"/>
<path d="M9460 1389 c-36 -11 -112 -27 -170 -37 l-105 -18 -3 -32 -3 -32 50 0
c38 0 56 -5 71 -20 19 -19 20 -33 20 -324 0 -351 2 -342 -85 -349 -49 -4 -50
-4 -50 -36 l0 -32 255 0 255 -1 3 30 c3 30 2 31 -52 37 -98 13 -91 -22 -91
434 0 350 -2 401 -15 400 -8 -1 -44 -10 -80 -20z"/>
<path d="M11178 1397 c-46 -13 -134 -62 -184 -102 -21 -17 -28 -32 -32 -74 -3
-39 -1 -55 9 -62 30 -19 48 -9 68 35 22 50 41 64 103 72 58 8 121 -10 163 -47
37 -33 53 -71 57 -138 l3 -45 -125 -27 c-165 -37 -253 -72 -301 -120 -44 -44
-59 -89 -59 -182 0 -134 58 -207 176 -222 73 -10 113 5 207 79 47 36 90 66 96
66 7 0 9 -19 4 -60 l-6 -60 172 0 171 0 0 29 c0 25 -4 29 -39 35 -22 3 -47 13
-55 22 -17 17 -17 9 -20 399 -1 217 -2 233 -24 276 -25 52 -88 102 -147 118
-69 18 -186 22 -237 8z m192 -557 l0 -109 -35 -35 c-31 -31 -85 -56 -123 -56
-30 0 -81 33 -91 58 -25 63 -17 124 20 166 24 28 50 42 122 65 51 16 95 27 99
25 5 -3 8 -54 8 -114z"/>
<path d="M12090 1395 c-106 -30 -173 -85 -213 -174 -15 -34 -18 -60 -15 -121
3 -68 7 -84 33 -122 42 -58 87 -81 236 -118 176 -44 209 -68 209 -153 0 -151
-217 -198 -359 -79 -30 25 -33 34 -38 95 -3 37 -8 67 -12 68 -3 0 -13 2 -22 4
-34 6 -39 -10 -41 -140 l-3 -130 55 -18 c146 -49 329 -44 440 10 127 62 185
160 179 302 -7 143 -55 183 -279 235 -182 42 -214 63 -214 142 0 41 27 80 74
106 28 15 51 18 107 16 61 -3 78 -8 115 -34 40 -28 44 -34 52 -92 8 -59 10
-62 37 -62 15 0 30 3 32 8 3 4 6 56 8 117 l4 109 -50 19 c-69 27 -259 33 -335
12z"/>
<path d="M12970 1389 c-36 -11 -112 -27 -170 -37 l-105 -18 -3 -32 -3 -32 48
0 c92 0 88 15 91 -335 3 -359 6 -348 -83 -360 -55 -6 -56 -7 -53 -36 l3 -30
245 0 c135 0 251 0 258 1 13 0 18 59 5 61 -101 9 -122 16 -130 47 -5 15 -8
199 -8 410 0 334 -2 382 -15 381 -8 -1 -44 -10 -80 -20z"/>
<path d="M9802 1348 c3 -29 7 -33 40 -39 70 -11 51 27 253 -497 l147 -383 -28
-67 c-73 -174 -141 -237 -232 -213 -21 6 -51 22 -66 36 -45 42 -45 42 -65 -86
-6 -36 -11 -68 -11 -71 0 -14 96 -30 155 -26 81 7 141 40 197 111 48 61 80
128 193 407 166 412 309 729 345 767 12 12 33 23 48 25 22 2 28 9 30 36 l3 32
-176 0 -176 0 3 -32 c3 -27 8 -32 33 -35 55 -6 73 -13 79 -29 3 -9 -8 -56 -25
-106 -44 -128 -164 -411 -176 -415 -5 -2 -24 34 -41 79 -17 46 -57 151 -88
233 -82 216 -82 224 1 235 37 5 40 8 43 38 l3 32 -246 0 -246 0 3 -32z"/>
</g>
</svg>
